PathFileType	4	(X/Y/Z)	/Users/visionmauri/4_1_1_f_Sports2D/4_1_1_f_Sports2D_px_person00.trc
DataRate	CameraRate	NumFrames	NumMarkers	Units	OrigDataRate	OrigDataStartFrame	OrigNumFrames
30.0	30.0	12	22	m	30.0	310	355
Frame#	Time	Hip			RHip			RKnee			RAnkle			RBigToe			RSmallToe			RHeel			LHip			LKnee			LAnkle			LBigToe			LSmallToe			LHeel			Neck			Head			Nose			RShoulder			RElbow			RWrist			LShoulder			LElbow			LWrist			
		X1	Y1	Z1	X2	Y2	Z2	X3	Y3	Z3	X4	Y4	Z4	X5	Y5	Z5	X6	Y6	Z6	X7	Y7	Z7	X8	Y8	Z8	X9	Y9	Z9	X10	Y10	Z10	X11	Y11	Z11	X12	Y12	Z12	X13	Y13	Z13	X14	Y14	Z14	X15	Y15	Z15	X16	Y16	Z16	X17	Y17	Z17	X18	Y18	Z18	X19	Y19	Z19	X20	Y20	Z20	X21	Y21	Z21	X22	Y22	Z22
310	10.362523540489644	607.9825633430319	892.6134249246321	0.0	532.3024909934404	896.0503623520126	0.0	465.02003555064397	1133.919150417202	0.0	469.2071084221069	1388.182888179836	0.0	457.1134905432121	1507.391167622694	0.0	424.70542350111725	1491.7233217238327	0.0	493.6750793108189	1420.1173572240587	0.0	684.0137629235353	917.5659533464135	0.0	674.8457843893692	1192.4307241581382	0.0	662.9454939347504	1482.2886352754392	0.0	685.023450055656	1592.32789137016	0.0	726.1948034590268	1582.660121860944	0.0	639.1010077124324	1524.6064755657642	0.0	650.2220036875409	485.2672388098452	0.0	649.7789205550384	321.7570428007835	0.0	633.1677495859427	456.676755728537	0.0	516.8829027328711	538.2160843388102	0.0	420.59207096943516	726.9361354633675	0.0	306.69356860298353	875.2011664419051	0.0	784.3233404434441	528.9645623779035	0.0	858.5390177535228	713.085745790133	0.0	849.7872219708645	855.0446067129008	0.0
311	10.395951035781545	607.1830818873958	893.5659573663927	0.0	530.6600554381357	897.7858489483498	0.0	464.1831926635377	1137.5743371513915	0.0	469.4097431114823	1392.21359408783	0.0	454.4744005234782	1516.4695307271763	0.0	422.3818966608767	1498.9553303390749	0.0	498.78040175847445	1425.5427602937589	0.0	683.1346098912736	918.4999269275531	0.0	674.7174690681555	1192.217230208134	0.0	662.6576571474784	1481.0162216771603	0.0	685.7110520655582	1592.449084022635	0.0	727.1770345283686	1582.9720584746822	0.0	638.7630256137464	1524.2281027839483	0.0	652.8605474966353	484.5626103112336	0.0	653.9576323183081	320.9604538918847	0.0	639.1657331772977	458.60906436806977	0.0	519.7866494671272	535.6224366124644	0.0	421.9747383741889	724.3453667593096	0.0	307.0684040825157	873.1563012938525	0.0	786.1594732827832	528.7917438723503	0.0	858.0165409447479	715.4557638303464	0.0	852.5144541106255	855.070075381611	0.0
312	10.429378531073446	606.2422061792805	894.5087810304678	0.0	528.7779030240791	899.3768991947554	0.0	462.66921833478426	1145.6779186389422	0.0	469.41757725083147	1400.550695235988	0.0	450.5989827894673	1528.2776137320238	0.0	418.25593427383905	1509.7607011139792	0.0	501.3769177498286	1439.798944339298	0.0	681.9973330866638	919.213418553086	0.0	673.6307610602249	1193.7093317137694	0.0	662.2201723151155	1479.5669205164572	0.0	685.4176730999197	1592.6896286561362	0.0	727.9967919810667	1582.7173246573823	0.0	638.821139908266	1522.461379823282	0.0	655.0825852221737	484.40060304718514	0.0	656.8205990066276	318.4021317201953	0.0	639.6049166548706	457.55795489086944	0.0	522.5828944021337	531.8329887418232	0.0	422.9406854626301	721.2459735272936	0.0	307.3372258020855	871.3657878483549	0.0	788.5331789345311	529.3027063100552	0.0	857.8064742859549	720.3304958269548	0.0	853.6503476034177	855.5225864214323	0.0
313	10.46280602636535	604.9519068186107	894.5783168594488	0.0	527.7969753946445	900.0472978727224	0.0	462.6301876091707	1156.6968604868073	0.0	469.49210995928024	1415.583506281274	0.0	446.863487218077	1539.5758388908118	0.0	413.84689575405747	1521.3188878537555	0.0	502.45952330565046	1464.6420622546332	0.0	681.2464429740413	919.4696718465798	0.0	672.0979225217416	1195.460761108322	0.0	661.7076407551517	1478.4700191881211	0.0	683.4208031726744	1592.9679503355503	0.0	728.0926595500639	1581.7838643748262	0.0	639.4445147430265	1520.6441843738883	0.0	657.6380628641114	484.40704874543235	0.0	657.7384525909272	314.4451934254733	0.0	632.4544792729723	452.5442866909344	0.0	525.5257498964421	527.8945868590424	0.0	424.15114492140714	718.9874638176062	0.0	307.7326701918272	870.1508765023856	0.0	791.349476001809	531.1961759699051	0.0	857.7456226339418	727.4992572719161	0.0	853.1333227294152	857.5145875458943	0.0
314	10.49623352165725	604.4303070711074	894.1216384738407	0.0	527.5890069525491	899.7649420541685	0.0	465.6508581809252	1164.315454750589	0.0	469.61772353216355	1431.4781306802618	0.0	444.2224028699819	1549.1942645588706	0.0	409.42261572140484	1531.762995905954	0.0	503.04081362914025	1487.2696981986892	0.0	680.940286512364	919.3657291603041	0.0	671.0343068198977	1196.3694496314522	0.0	661.5490931927095	1478.3818360158155	0.0	681.3528802518783	1593.5889069864616	0.0	727.9028272532655	1580.6488573117442	0.0	639.8822554167816	1519.2890296313403	0.0	660.6806731465364	484.3675141405221	0.0	657.4588024684818	311.54567502047286	0.0	624.3403428398486	448.23462458383096	0.0	527.9143636120137	524.8989098536697	0.0	425.2043850671552	717.5379142169605	0.0	308.4094771015179	869.1232613061616	0.0	794.4652948616127	534.7905610268281	0.0	857.19116640933	733.6852524936977	0.0	852.0389208410913	860.6670135816895	0.0
315	10.529661016949154	605.4064082579023	894.1119091343955	0.0	527.8209013991296	899.1316899053974	0.0	471.2065502021144	1165.1139157580812	0.0	468.9340571491935	1441.5155450757916	0.0	442.6354629042036	1556.6399330132954	0.0	405.0815701794198	1539.8446550995236	0.0	501.63425003833504	1496.6636187953468	0.0	680.881162215789	919.3814580510475	0.0	671.0264258192373	1195.9373522144688	0.0	662.1935664602282	1479.476089396679	0.0	680.5518248603598	1594.0922356280419	0.0	727.8222461709807	1579.9647991367112	0.0	639.9033176959086	1518.6006660863636	0.0	662.726194545059	483.8367761640111	0.0	656.9936058444868	310.6885126154037	0.0	621.3648383893911	447.74630449974893	0.0	528.5150406389514	523.3890544994849	0.0	425.54994964842894	715.9470080584789	0.0	308.7777882370961	868.4450243014749	0.0	796.6158729054881	538.4878191983539	0.0	856.1302020943414	736.5512184286752	0.0	851.391313798772	863.9078459581278	0.0
316	10.563088512241055	606.8448990460898	894.7158728593714	0.0	528.902917582859	898.8195692561551	0.0	476.62647956595066	1162.4222962959257	0.0	466.61521239258894	1446.873165454013	0.0	440.3635314022628	1560.5562536399596	0.0	401.3333291808573	1543.4970231226096	0.0	498.222528947945	1500.1753360172536	0.0	681.0882155068495	919.5872800013113	0.0	672.1020451971059	1194.4875993805865	0.0	663.3440260131011	1480.9201025134748	0.0	680.5943747399714	1593.4659674240079	0.0	727.8065844082676	1579.941458694484	0.0	640.1173920483373	1519.7713522948527	0.0	662.4653621212278	482.7807296377387	0.0	656.8536838331368	309.7998549927047	0.0	621.2405049694036	447.31321821998125	0.0	527.7112874986636	523.1007965801672	0.0	425.75442340354385	714.6643097817731	0.0	308.5308662847976	868.7358981049958	0.0	796.4113618934705	540.3551362184251	0.0	855.3937793307875	738.2935447863921	0.0	850.6871980948308	866.3537537374385	0.0
317	10.596516007532957	607.8496168459649	895.0047768687175	0.0	531.4282379443919	898.8616971680945	0.0	479.88672362875667	1161.165849814214	0.0	463.26277887039527	1452.0945921376365	0.0	435.6701190276047	1561.8418829163793	0.0	398.11074042618094	1543.911917246392	0.0	494.86461904092	1508.5324180335022	0.0	682.0442436717615	919.2135243042238	0.0	673.6653998556751	1192.8977425755052	0.0	664.1013742261438	1481.8568079694207	0.0	680.8143591693243	1591.7469914918859	0.0	727.5403838305723	1580.204773576133	0.0	640.8383734765143	1522.743768377257	0.0	660.0886277445625	481.7382487659233	0.0	656.7450968946291	307.96343291254396	0.0	619.2326604317366	443.4978284498627	0.0	527.1793301978734	522.905318224304	0.0	426.76550801984786	714.2383914857063	0.0	308.3152074928108	869.0460868976139	0.0	793.793965412517	539.1982619264028	0.0	854.646558237181	740.7837208445408	0.0	848.4238089017612	868.3151782071872	0.0
318	10.62994350282486	608.9875489915214	894.4338560195516	0.0	534.4597616713353	899.2992768104045	0.0	482.013869641119	1163.9318315369262	0.0	460.397386301365	1458.1048121030897	0.0	430.01203092337323	1563.7853796894674	0.0	395.5496730098313	1546.287290414855	0.0	492.61300304956563	1518.7492330206844	0.0	684.2539876152177	917.944836039169	0.0	675.0316875894656	1192.309766021969	0.0	664.1528065917339	1482.4282699426733	0.0	681.1569686956354	1590.4553421447824	0.0	726.9176834322703	1580.4959681240002	0.0	641.5089931509518	1525.2791071990646	0.0	656.1999337181086	481.32053329476867	0.0	655.8141103980003	307.1469056856236	0.0	617.1499780185459	439.37923151790443	0.0	525.8272190837146	522.4544930249274	0.0	428.1079518933144	713.832857650123	0.0	308.4001862873003	867.7634023642744	0.0	789.7846871084058	535.3788393335071	0.0	852.136042724369	742.2852466496003	0.0	844.6065912342847	871.417863110773	0.0
319	10.663370998116761	610.8605891089326	893.8250276136624	0.0	536.3434647402211	900.8071535809257	0.0	484.874670765809	1170.2977966992382	0.0	458.8337583830115	1463.7904056440564	0.0	426.17398647844016	1568.4331309034976	0.0	393.81148851222275	1553.056697492007	0.0	491.2766710235095	1524.3941643630012	0.0	686.9188352215994	916.7917744941043	0.0	676.1503905701383	1193.7958662589485	0.0	663.8803573067585	1482.9221458984118	0.0	681.39759727807	1590.704962663731	0.0	726.3510141904837	1580.9577584816843	0.0	641.4251212782076	1525.8690150406992	0.0	651.8091612268692	481.5240123542688	0.0	653.4442115726797	308.236263268883	0.0	617.863721856958	438.75494129290405	0.0	521.4948507645734	522.8720111486808	0.0	428.4241336738952	712.9305619996836	0.0	308.23634468370443	865.2885758029131	0.0	785.6950046217481	531.3293006566198	0.0	847.3855331919669	741.7401109624683	0.0	841.3819230141157	875.3890764955092	0.0
320	10.696798493408664	612.6924084948753	895.0159203179675	0.0	536.8536908765009	904.4097139216934	0.0	487.36469495581326	1178.2089749633521	0.0	458.7766480928362	1468.1512851528873	0.0	424.5672490452704	1574.8963966764109	0.0	391.9025176473297	1560.6612284761536	0.0	490.4115128419885	1526.3973303250132	0.0	688.3128901061784	917.7567018939349	0.0	677.3310629290429	1197.9287057243366	0.0	663.6629221831203	1483.2064517512347	0.0	681.1451367214811	1592.1364035433157	0.0	726.3721339494546	1581.7446302231326	0.0	641.0083146474951	1525.2912021287282	0.0	648.4632841978312	481.52049901381054	0.0	649.136326106466	309.62649166184457	0.0	616.6299930101632	440.6124763611655	0.0	516.1323236671608	525.0427561985857	0.0	427.1320920500678	712.7270730619529	0.0	307.7954338907994	863.8923603372297	0.0	782.4713295416159	529.1626255180681	0.0	841.9868333076356	740.6837929367432	0.0	840.3793378853467	877.6146744011559	0.0
321	10.730225988700566	613.5196936938916	898.7256414049044	0.0	536.5637712210546	909.8777694429065	0.0	486.8782573527628	1186.1286353026378	0.0	460.3009194641906	1471.3526820709167	0.0	424.49240935066973	1580.7990167626772	0.0	389.7167886072994	1565.6177639623756	0.0	490.02629886944857	1528.5947583151567	0.0	688.1922145829014	921.7046384708851	0.0	678.4919886087989	1204.3002981789512	0.0	663.7587484537638	1483.6069584895054	0.0	680.6670654298699	1593.5594924361842	0.0	726.923391432913	1582.695533906604	0.0	641.3454373061087	1524.8224464449588	0.0	646.4686852731527	480.76434854140564	0.0	642.7821730718908	309.9666243074523	0.0	608.1668415918181	442.2067868516074	0.0	512.5112722715015	528.5912160027045	0.0	424.51409359818916	714.2894425392035	0.0	307.6153046331489	864.4216159148481	0.0	780.3487638867499	528.6083734488942	0.0	837.205923705508	739.92055013843	0.0	840.9031848351732	877.8259877148635	0.0
